<?xml version="1.0" standalone="no"?>
<!DOCTYPE svg PUBLIC "-//W3C//DTD SVG 20010904//EN"
 "http://www.w3.org/TR/2001/REC-SVG-20010904/DTD/svg10.dtd">
<svg version="1.0" xmlns="http://www.w3.org/2000/svg"
 width="1024.000000pt" height="576.000000pt" viewBox="0 0 1024.000000 576.000000"
 preserveAspectRatio="xMidYMid meet">

<g transform="translate(0.000000,576.000000) scale(0.100000,-0.100000)"
fill="#000000" stroke="none">
<path d="M5044 5675 c-318 -348 -576 -954 -659 -1545 -23 -169 -34 -436 -25
-627 5 -93 12 -176 15 -185 7 -17 52 -18 755 -18 l747 0 6 88 c31 408 9 708
-78 1068 -117 487 -388 1021 -643 1267 l-39 38 -79 -86z"/>
<path d="M2193 4423 c6 -200 22 -311 77 -513 45 -166 142 -420 214 -560 l23
-45 867 -3 868 -2 -23 39 c-108 180 -436 531 -639 683 -415 310 -862 512
-1268 573 -53 8 -103 15 -111 15 -11 0 -13 -32 -8 -187z"/>
<path d="M8000 4603 c-183 -20 -422 -88 -650 -185 -417 -177 -804 -461 -1111
-817 -86 -99 -219 -279 -219 -295 0 -3 389 -6 863 -6 l864 0 41 88 c189 401
288 793 280 1102 -3 125 0 121 -68 113z"/>
<path d="M2630 3073 c0 -12 49 -91 99 -161 l44 -62 2353 0 2352 0 30 38 c46
57 112 164 112 179 0 11 -412 13 -2495 13 -1372 0 -2495 -3 -2495 -7z"/>
<path d="M2980 2603 c0 -10 93 -107 154 -160 l49 -43 1933 0 1932 0 79 58 c67
51 143 128 143 146 0 3 -965 6 -2145 6 -1180 0 -2145 -3 -2145 -7z"/>
<path d="M3520 2170 c0 -17 233 -165 363 -231 261 -133 525 -219 759 -247 l66
-8 4 65 c4 69 -9 397 -17 419 -6 16 -1175 18 -1175 2z"/>
<path d="M4760 2169 c0 -36 212 -354 301 -452 71 -79 62 -81 158 38 115 141
277 397 265 417 -8 13 -724 10 -724 -3z"/>
<path d="M5565 2168 c-12 -33 -26 -168 -32 -315 l-6 -163 39 0 c174 0 513 104
784 240 158 79 380 220 380 241 0 5 -240 9 -580 9 -455 0 -582 -3 -585 -12z"/>
<path d="M4130 1165 c0 -113 -2 -205 -5 -205 -3 0 -28 11 -55 25 -148 75 -321
74 -477 -2 -120 -58 -209 -158 -258 -287 -105 -282 66 -601 364 -677 124 -32
247 -20 365 36 29 14 56 25 59 25 4 0 7 -14 7 -30 l0 -31 123 3 122 3 3 673 2
672 -125 0 -125 0 0 -205z m-158 -388 c172 -101 203 -319 66 -456 -60 -59
-119 -84 -198 -85 -161 0 -295 129 -295 284 1 115 63 210 170 262 54 26 68 29
136 25 60 -3 86 -9 121 -30z"/>
<path d="M4500 1245 l0 -126 123 3 122 3 3 123 3 122 -126 0 -125 0 0 -125z"/>
<path d="M5670 1165 c0 -113 -2 -205 -4 -205 -2 0 -26 11 -53 25 -198 101
-449 61 -608 -99 -176 -176 -202 -448 -64 -656 53 -78 113 -130 202 -173 168
-82 296 -77 514 19 7 4 13 -6 15 -23 l3 -28 120 0 120 0 3 673 2 672 -125 0
-125 0 0 -205z m-157 -388 c94 -56 157 -159 157 -258 0 -98 -76 -211 -174
-258 -63 -31 -161 -33 -226 -4 -92 41 -163 136 -176 236 -16 116 75 259 193
303 60 23 171 13 226 -19z"/>
<path d="M2542 1024 c-93 -25 -164 -66 -233 -134 -341 -338 -83 -917 396 -887
76 5 216 44 239 67 19 19 36 10 36 -20 l0 -30 120 0 120 0 0 505 0 505 -120 0
-120 0 0 -28 c0 -16 -3 -31 -6 -35 -4 -3 -28 5 -55 19 -103 52 -266 68 -377
38z m277 -250 c99 -53 154 -148 153 -260 -2 -196 -231 -339 -408 -254 -179 87
-227 313 -96 453 69 74 130 99 228 94 54 -3 82 -10 123 -33z"/>
<path d="M6385 1021 c-99 -28 -156 -62 -230 -136 -78 -77 -117 -141 -140 -230
-17 -68 -19 -189 -4 -255 42 -183 217 -350 407 -389 111 -23 243 -5 344 45 26
13 50 24 53 24 3 0 5 -14 5 -30 l0 -31 123 3 122 3 0 500 0 500 -122 3 -123 3
0 -36 c0 -19 -2 -35 -5 -35 -3 0 -27 11 -53 25 -107 55 -260 70 -377 36z m260
-235 c51 -23 112 -82 139 -133 22 -44 34 -128 25 -178 -35 -188 -223 -292
-389 -214 -184 87 -232 303 -100 453 81 91 218 122 325 72z"/>
<path d="M7465 1026 c-179 -43 -284 -171 -272 -329 7 -78 44 -156 92 -192 61
-47 174 -83 330 -105 97 -13 162 -36 175 -60 27 -50 -10 -119 -77 -141 -57
-18 -175 -7 -217 22 -33 22 -66 74 -66 104 0 12 -22 15 -130 15 l-130 0 0 -24
c0 -51 34 -129 78 -178 101 -112 294 -161 500 -128 109 18 171 47 233 110 70
71 94 138 87 240 -12 163 -109 236 -381 284 -206 37 -264 70 -238 138 16 43
64 63 156 63 105 0 144 -20 165 -88 l15 -47 123 0 c141 0 138 -3 101 97 -40
106 -140 187 -270 218 -76 17 -204 18 -274 1z"/>
<path d="M4502 528 l3 -503 120 0 120 0 0 500 0 500 -123 3 -122 3 2 -503z"/>
</g>
</svg>
