<?xml version="1.0" standalone="no"?>
<!DOCTYPE svg PUBLIC "-//W3C//DTD SVG 20010904//EN"
 "http://www.w3.org/TR/2001/REC-SVG-20010904/DTD/svg10.dtd">
<svg version="1.0" xmlns="http://www.w3.org/2000/svg"
 width="800.000000pt" height="800.000000pt" viewBox="0 0 800.000000 800.000000"
 preserveAspectRatio="xMidYMid meet">

<g transform="translate(0.000000,800.000000) scale(0.100000,-0.100000)"
fill="#000000" stroke="none">
<path d="M2130 4975 c-147 -30 -273 -92 -429 -211 -477 -362 -781 -955 -696
-1357 29 -139 106 -238 231 -298 159 -75 276 -66 776 60 451 114 706 85 843
-94 l30 -40 40 40 c54 55 103 76 190 82 130 10 281 -26 415 -98 l55 -30 -72
69 c-81 78 -222 177 -303 214 -132 60 -288 82 -481 67 -141 -10 -238 -29 -599
-118 -339 -84 -403 -94 -531 -89 -90 3 -104 7 -175 43 -117 60 -158 128 -171
285 -24 296 233 798 592 1155 150 151 290 235 388 235 51 0 67 -13 67 -56 0
-29 -4 -33 -42 -46 -80 -26 -134 -132 -89 -177 11 -11 29 -21 40 -21 67 0 156
138 156 241 -1 71 -21 104 -85 137 -50 25 -59 25 -150 7z"/>
<path d="M5025 4974 c-234 -59 -414 -173 -650 -409 -175 -174 -263 -285 -398
-501 -44 -70 -135 -257 -161 -329 -52 -147 -69 -231 -64 -334 6 -125 33 -197
98 -262 138 -138 353 -90 574 127 173 169 306 431 306 601 0 66 -18 112 -56
142 -25 20 -37 22 -83 18 -133 -14 -279 -135 -353 -294 -33 -71 -88 -249 -88
-286 0 -6 17 5 38 24 58 56 123 105 168 127 35 18 43 28 53 68 28 109 113 233
179 261 30 12 37 12 59 -3 24 -15 25 -19 21 -93 -9 -146 -111 -341 -251 -481
-167 -167 -316 -186 -384 -50 -57 112 -11 343 122 605 164 326 442 675 679
851 114 86 207 134 269 141 54 6 68 -10 30 -34 -73 -45 -197 -160 -252 -233
-86 -114 -134 -218 -139 -302 -4 -64 -3 -69 26 -98 40 -39 80 -39 160 0 166
84 341 384 342 587 0 37 3 43 26 49 35 9 120 -10 206 -46 40 -16 154 -82 253
-145 l179 -116 72 78 c40 43 69 81 66 84 -15 14 -296 172 -356 200 -136 64
-264 72 -410 25 l-72 -23 -36 25 c-37 24 -127 37 -173 26z m185 -176 c-1 -152
-125 -380 -262 -483 -88 -66 -127 -71 -150 -20 -27 59 64 233 192 369 73 76
187 166 211 166 5 0 9 -15 9 -32z"/>
<path d="M6950 4922 c-80 -76 -173 -141 -275 -192 -121 -60 -192 -79 -310 -85
l-90 -4 -67 -78 c-78 -91 -78 -91 59 -92 192 -2 408 102 570 273 61 63 171
214 162 219 -2 1 -24 -17 -49 -41z"/>
<path d="M6439 4941 c-142 -55 -383 -278 -592 -546 -126 -162 -270 -394 -393
-633 -58 -114 -64 -121 -128 -136 -34 -8 -34 -5 14 124 27 72 31 96 28 154 -3
63 -6 71 -37 98 -32 28 -38 30 -92 25 -89 -8 -167 -55 -285 -172 -204 -203
-341 -471 -332 -651 3 -64 7 -77 32 -103 55 -57 127 -51 237 20 91 59 188 164
277 299 42 65 82 124 87 133 6 8 33 18 62 21 l52 7 -25 -73 c-63 -184 -80
-318 -49 -378 54 -105 155 -90 292 46 l73 71 0 -44 c0 -48 18 -101 43 -121 51
-43 152 -12 248 76 31 29 58 52 60 52 2 0 4 -23 5 -52 0 -43 5 -55 28 -75 37
-31 69 -29 145 9 78 41 167 121 251 228 77 96 160 218 160 231 0 6 -12 9 -27
7 -22 -2 -39 -19 -76 -73 -97 -142 -223 -263 -249 -237 -19 19 5 76 108 252
103 176 284 499 284 506 0 2 -41 4 -91 4 -82 0 -93 -2 -109 -22 l-17 -22 -25
28 c-18 21 -36 29 -71 33 -62 7 -128 -25 -229 -111 -96 -82 -178 -185 -332
-416 -122 -183 -201 -274 -234 -268 -26 5 -43 48 -36 93 18 122 102 335 142
361 63 41 224 175 311 259 146 140 433 476 420 490 -2 2 -16 1 -31 -2 -19 -4
-51 -35 -109 -107 -145 -178 -549 -569 -549 -530 0 29 162 308 296 509 141
213 221 313 354 442 112 110 184 158 199 134 11 -17 0 -61 -31 -132 l-25 -55
29 4 c38 6 78 82 85 163 5 48 3 59 -16 78 -26 26 -69 27 -132 2z m-1143 -1016
c30 -45 4 -174 -53 -270 l-12 -20 -38 20 c-99 53 -111 168 -26 246 60 56 103
64 129 24z m1094 -16 c0 -15 -225 -402 -290 -498 -72 -108 -131 -163 -168
-159 -23 3 -27 8 -30 39 -11 129 286 577 419 633 34 14 69 7 69 -15z m-1322
-224 c12 -19 47 -51 77 -71 l54 -36 -21 -42 c-57 -112 -192 -269 -243 -282
-103 -26 -119 70 -39 237 35 73 133 229 144 229 3 0 15 -16 28 -35z"/>
<path d="M2192 4491 c-159 -56 -371 -273 -482 -491 -98 -195 -111 -382 -30
-440 36 -26 111 -26 165 -1 117 54 271 212 386 397 65 105 71 112 111 122 23
6 44 9 46 8 2 -2 -15 -39 -36 -83 -84 -166 -99 -273 -54 -376 27 -62 72 -87
153 -87 102 0 182 44 320 174 39 37 73 66 75 63 3 -2 0 -16 -6 -31 -5 -15 -10
-54 -10 -87 0 -54 3 -64 29 -90 58 -58 157 -32 275 72 45 40 49 42 43 18 -9
-35 10 -97 33 -109 67 -36 161 10 296 144 81 81 254 298 254 319 0 5 -12 7
-27 5 -20 -2 -47 -28 -108 -103 -125 -153 -225 -225 -225 -162 0 12 90 179
200 371 110 191 200 350 200 352 0 2 -40 4 -89 4 -67 0 -92 -4 -101 -15 -12
-14 -16 -13 -39 9 -35 33 -69 40 -122 26 -101 -27 -254 -165 -390 -350 -226
-309 -342 -432 -442 -466 -41 -14 -48 -14 -75 0 -66 34 -64 112 6 275 93 215
304 459 399 461 18 0 43 -29 43 -51 0 -20 -4 -23 -53 -33 -36 -8 -87 -79 -87
-121 0 -20 8 -39 21 -51 20 -18 21 -18 57 1 41 22 96 104 113 169 38 141 -96
219 -246 143 -51 -25 -146 -101 -210 -167 -88 -91 -223 -185 -241 -167 -3 3 3
30 14 60 11 30 25 81 31 113 27 149 -58 225 -197 175z m124 -96 c23 -35 14
-116 -22 -195 -30 -68 -43 -73 -105 -38 -52 29 -75 78 -60 128 31 103 146 167
187 105z m1228 12 c18 -13 18 -15 1 -48 -33 -64 -238 -414 -282 -481 -48 -73
-135 -158 -162 -158 -24 0 -41 20 -41 50 0 32 56 161 108 248 87 146 255 352
311 382 44 23 43 23 65 7z m-1363 -308 c27 -13 49 -25 49 -27 0 -19 -116 -187
-168 -243 -90 -97 -142 -120 -184 -82 -47 43 1 192 124 385 l49 77 40 -44 c23
-24 63 -54 90 -66z"/>
<path d="M3900 4408 c-24 -40 -45 -76 -47 -80 -2 -5 36 -8 84 -8 l88 0 34 58
c19 31 41 67 49 80 l14 22 -90 0 -90 0 -42 -72z"/>
</g>
</svg>
