<?xml version="1.0" standalone="no"?>
<!DOCTYPE svg PUBLIC "-//W3C//DTD SVG 20010904//EN"
 "http://www.w3.org/TR/2001/REC-SVG-20010904/DTD/svg10.dtd">
<svg version="1.0" xmlns="http://www.w3.org/2000/svg"
 width="320.000000pt" height="320.000000pt" viewBox="0 0 320.000000 320.000000"
 preserveAspectRatio="xMidYMid meet">

<g transform="translate(0.000000,320.000000) scale(0.100000,-0.100000)"
fill="#000000" stroke="none">
<path d="M360 1813 c-188 -170 -200 -183 -200 -215 0 -21 10 -40 34 -64 l34
-34 771 0 772 0 59 30 60 30 -6 -30 -6 -30 196 0 196 0 373 175 c338 160 397
192 397 217 0 4 -105 8 -234 8 -186 0 -241 -3 -270 -15 -32 -14 -36 -14 -36 0
0 13 -23 15 -151 15 -90 0 -168 -5 -192 -12 -32 -10 -41 -10 -45 0 -3 9 -191
12 -830 12 l-827 -1 -95 -86z m1108 11 c2 -1 -1 -12 -8 -23 -11 -21 -16 -21
-384 -21 l-373 0 -67 -75 -67 -75 156 0 c131 0 160 3 183 18 l26 17 -77 5 -77
5 23 28 22 28 285 -3 285 -3 -44 -47 c-23 -26 -70 -61 -104 -78 l-60 -30 -479
0 c-477 0 -479 0 -476 20 2 12 61 71 133 134 l130 114 485 -5 c267 -3 486 -7
488 -9z m468 -56 c-30 -34 -54 -63 -52 -65 1 -2 71 27 154 62 l152 66 101 -3
101 -3 -52 -67 c-28 -38 -48 -68 -45 -68 3 0 66 32 139 70 l134 71 113 -3 114
-3 -259 -127 -259 -128 -143 0 c-79 0 -144 4 -144 9 0 4 18 32 41 60 l41 51
-99 -36 c-54 -19 -128 -47 -165 -60 -61 -22 -79 -24 -209 -22 l-142 3 118 128
118 127 149 0 150 0 -56 -62z"/>
<path d="M648 1429 c-21 -12 -25 -98 -6 -117 17 -17 1939 -17 1956 0 7 7 12
33 12 60 0 37 -4 50 -19 58 -27 14 -1919 13 -1943 -1z m922 -24 c0 -8 4 -15 9
-15 5 0 11 7 15 15 8 21 42 19 51 -2 6 -17 7 -17 16 0 6 9 17 17 24 17 18 0
18 -2 1 -45 -17 -40 -40 -45 -57 -13 l-12 22 -15 -22 c-21 -32 -40 -27 -57 14
-19 45 -19 44 5 44 11 0 20 -7 20 -15z m180 -25 c0 -29 -4 -40 -15 -40 -11 0
-15 11 -15 40 0 29 4 40 15 40 11 0 15 -11 15 -40z m84 25 c21 -14 24 -14 29
0 4 8 13 15 22 15 11 0 15 -11 15 -40 0 -46 -13 -51 -53 -20 l-25 20 -5 -21
c-9 -33 -32 -17 -35 24 -4 42 12 48 52 22z m153 -7 l23 -21 0 21 c0 13 6 22
15 22 11 0 15 -11 15 -40 0 -45 -10 -49 -48 -19 l-27 21 -3 -21 c-6 -40 -32
-24 -32 19 0 47 20 53 57 18z m183 12 c0 -5 -15 -11 -32 -11 l-33 -2 35 -7 35
-7 -32 -2 c-41 -1 -44 -21 -3 -21 17 0 30 -5 30 -11 0 -6 -19 -9 -47 -7 -48 3
-48 3 -51 41 l-3 37 50 0 c28 0 51 -4 51 -10z m135 0 c4 -6 2 -17 -5 -25 -7
-9 -8 -15 0 -20 5 -3 10 -10 10 -16 0 -14 -27 -11 -44 6 -8 8 -19 15 -25 15
-6 0 -11 -7 -11 -15 0 -8 -7 -15 -15 -15 -11 0 -15 11 -15 40 l0 40 49 0 c28
0 53 -5 56 -10z m121 -2 c5 -8 -2 -9 -27 -4 -20 4 -30 3 -24 -3 6 -5 19 -11
30 -13 11 -2 21 -11 23 -20 4 -19 -45 -33 -78 -23 -35 11 -22 26 18 20 27 -5
33 -4 22 4 -8 6 -23 11 -32 11 -20 0 -32 16 -23 30 9 14 82 13 91 -2z m-1376
-28 c0 -13 -7 -20 -19 -20 -17 0 -20 11 -12 38 1 1 8 2 16 2 8 0 15 -9 15 -20z
m-300 -5 c0 -8 -6 -15 -14 -15 -17 0 -28 14 -19 24 12 12 33 6 33 -9z m50 0
c0 -8 -6 -15 -14 -15 -8 0 -16 7 -20 15 -4 10 1 15 14 15 11 0 20 -7 20 -15z
m48 -2 c6 -19 -25 -16 -32 3 -4 11 -1 14 11 12 9 -2 18 -9 21 -15z m99 0 c3
-7 -11 -11 -41 -11 -44 0 -55 6 -39 22 11 11 76 2 80 -11z m50 2 c0 -8 -9 -15
-19 -15 -18 0 -24 11 -11 23 12 12 30 7 30 -8z m104 3 c0 -10 2 -10 6 0 2 6
14 12 25 12 11 0 18 -5 16 -12 -5 -15 -88 -24 -88 -10 0 22 39 32 41 10z m177
-8 c-15 -23 -34 -26 -41 -6 -7 19 1 26 30 26 21 0 22 -2 11 -20z m69 -5 c0 -8
-9 -15 -19 -15 -10 0 -18 7 -18 15 0 8 8 15 18 15 10 0 19 -7 19 -15z m51 -2
c2 -8 -5 -13 -17 -13 -12 0 -21 6 -21 16 0 18 31 15 38 -3z m56 2 c-25 -19
-44 -19 -44 0 0 10 10 15 32 15 30 0 31 -1 12 -15z"/>
<path d="M2238 1393 c6 -2 18 -2 25 0 6 3 1 5 -13 5 -14 0 -19 -2 -12 -5z"/>
</g>
</svg>
