<?xml version="1.0" standalone="no"?>
<!DOCTYPE svg PUBLIC "-//W3C//DTD SVG 20010904//EN"
 "http://www.w3.org/TR/2001/REC-SVG-20010904/DTD/svg10.dtd">
<svg version="1.0" xmlns="http://www.w3.org/2000/svg"
 width="1000.000000pt" height="893.000000pt" viewBox="0 0 1000.000000 893.000000"
 preserveAspectRatio="xMidYMid meet">

<g transform="translate(0.000000,893.000000) scale(0.100000,-0.100000)"
fill="#000000" stroke="none">
<path d="M4830 7814 c-498 -44 -768 -94 -1123 -210 -327 -108 -592 -232 -827
-389 -170 -113 -268 -192 -395 -320 -242 -243 -397 -517 -462 -818 -26 -118
-25 -438 1 -557 160 -737 881 -1326 1951 -1594 265 -67 504 -102 865 -126 359
-24 710 -3 1160 71 378 62 834 218 1160 398 577 319 944 760 1052 1264 28 134
30 376 3 517 -82 438 -378 841 -850 1160 -432 292 -1088 513 -1742 586 -131
15 -686 27 -793 18z m671 -269 c530 -50 871 -138 1128 -291 172 -102 249 -185
271 -290 49 -237 -260 -458 -821 -588 -163 -38 -208 -44 -226 -33 -6 4 -14 28
-18 54 -13 91 -64 288 -104 405 -123 354 -295 586 -488 658 -340 127 -681
-276 -829 -980 -14 -69 -31 -130 -38 -136 -8 -9 -46 -5 -151 17 -750 154
-1083 476 -792 769 215 218 732 376 1377 423 140 10 543 5 691 -8z m-318 -511
c60 -20 159 -124 209 -220 68 -129 173 -493 149 -517 -19 -19 -839 -17 -850 2
-5 7 1 57 14 120 81 375 243 623 411 630 11 1 41 -6 67 -15z m2389 -419 c95
-134 166 -301 205 -485 26 -126 24 -371 -5 -507 -93 -435 -374 -815 -817
-1105 -337 -221 -730 -370 -1187 -448 -130 -23 -346 -45 -354 -37 -4 3 28 52
71 108 244 324 389 848 411 1481 4 125 11 201 18 206 6 5 74 21 151 36 442 86
736 200 993 383 166 118 319 302 372 446 l25 69 34 -39 c18 -21 56 -69 83
-108z m-4781 108 c87 -216 206 -356 434 -508 257 -172 664 -318 1036 -370 25
-4 51 -10 58 -14 8 -5 15 -79 21 -237 10 -251 51 -567 96 -753 72 -291 203
-575 341 -738 29 -34 53 -65 53 -68 0 -18 -289 21 -562 76 -505 102 -1013 364
-1344 694 -179 178 -297 349 -380 553 -161 395 -136 844 64 1175 50 83 152
216 165 217 4 0 12 -12 18 -27z m2469 -939 c146 3 274 8 285 11 11 3 27 0 36
-7 16 -12 15 -26 -2 -188 -25 -239 -45 -344 -90 -484 -97 -297 -238 -476 -374
-476 -171 0 -349 293 -429 710 -41 209 -59 434 -36 442 5 2 85 -1 177 -5 93
-5 287 -6 433 -3z"/>
<path d="M3108 3175 c-230 -56 -414 -237 -473 -466 -22 -82 -22 -243 0 -323
60 -225 238 -402 466 -463 99 -26 244 -22 344 11 201 64 359 219 426 416 31
92 37 246 14 343 -70 294 -334 499 -640 496 -44 0 -106 -7 -137 -14z m265
-241 c68 -23 159 -110 197 -187 128 -265 -29 -588 -295 -605 -178 -11 -332
128 -366 332 -25 148 9 273 100 365 110 113 224 143 364 95z"/>
<path d="M5632 3170 c-127 -34 -198 -75 -292 -170 -132 -132 -190 -268 -190
-451 0 -294 196 -550 480 -624 87 -23 236 -24 319 -2 188 50 337 175 421 352
49 104 64 170 64 280 -1 263 -173 503 -428 597 -110 41 -264 48 -374 18z m271
-236 c180 -63 286 -291 232 -499 -68 -260 -337 -375 -537 -229 -196 142 -221
472 -49 644 98 98 227 128 354 84z"/>
<path d="M1534 3128 c-12 -16 -9 -187 3 -199 4 -4 87 -10 183 -11 l175 -3 5
-485 c3 -267 6 -486 8 -487 1 -2 58 -3 127 -3 69 0 126 1 127 3 2 1 5 220 8
487 l5 485 180 5 180 5 0 105 0 105 -496 3 c-390 2 -498 -1 -505 -10z"/>
<path d="M3920 3129 c0 -5 75 -128 167 -272 92 -144 195 -307 230 -361 l63
-99 0 -213 c0 -117 3 -219 6 -228 5 -13 27 -16 135 -16 l128 0 3 233 3 232
228 353 c125 195 227 360 227 368 0 11 -25 14 -139 14 -135 0 -140 -1 -158
-24 -11 -13 -80 -125 -153 -250 -74 -124 -138 -226 -141 -226 -3 0 -61 98
-129 218 -68 119 -134 232 -147 250 l-24 32 -150 0 c-98 0 -149 -4 -149 -11z"/>
<path d="M6514 3127 c-2 -7 -3 -56 -2 -108 l3 -94 192 -3 193 -2 2 -488 3
-487 130 0 130 0 5 485 5 485 180 5 180 5 0 105 0 105 -508 3 c-416 2 -508 0
-513 -11z"/>
<path d="M7952 3128 c-12 -15 -504 -1180 -500 -1184 2 -1 70 -4 151 -5 118 -2
150 0 161 12 7 8 30 61 51 119 21 58 45 113 53 123 14 15 39 17 248 17 272 0
240 16 299 -145 21 -55 43 -106 50 -114 11 -11 46 -13 161 -12 82 1 150 3 151
5 1 1 -75 193 -171 427 -95 233 -204 501 -242 594 l-69 170 -166 3 c-125 2
-169 -1 -177 -10z m222 -405 c102 -266 114 -298 110 -305 -7 -11 -312 -10
-319 1 -6 11 146 421 157 421 3 0 27 -53 52 -117z"/>
<path d="M0 400 l0 -400 5000 0 5000 0 0 400 0 400 -5000 0 -5000 0 0 -400z
m334 57 c52 -148 43 -145 85 -27 30 86 41 106 58 108 21 3 21 0 -14 -95 -19
-54 -40 -113 -46 -131 -9 -27 -15 -32 -36 -30 -22 3 -29 16 -68 123 -24 65
-43 123 -43 127 0 4 8 8 18 8 12 0 25 -22 46 -83z m1109 72 c14 -6 30 -22 36
-36 15 -32 14 -33 -9 -33 -11 0 -20 4 -20 10 0 5 -11 17 -25 26 -34 22 -78 5
-73 -29 2 -17 15 -26 57 -39 67 -22 81 -33 81 -70 0 -62 -76 -97 -143 -67 -21
9 -47 46 -47 64 0 12 39 3 44 -10 16 -41 106 -38 106 4 0 25 -17 38 -64 46
-48 10 -76 36 -76 74 0 55 72 88 133 60z m627 -61 l0 -72 38 37 c21 20 46 37
56 37 15 0 11 -8 -18 -41 l-37 -40 32 -42 c18 -23 37 -48 42 -54 7 -10 3 -13
-14 -13 -17 0 -33 13 -54 45 -16 24 -33 41 -37 39 -4 -3 -8 -23 -8 -45 0 -32
-3 -39 -20 -39 -19 0 -20 7 -20 130 0 123 1 130 20 130 18 0 20 -7 20 -72z
m-500 21 c0 -12 7 -19 20 -19 11 0 20 -7 20 -15 0 -8 -9 -15 -20 -15 -18 0
-20 -7 -20 -65 0 -58 2 -65 20 -65 11 0 20 -7 20 -16 0 -11 -8 -14 -32 -12
l-33 3 -3 74 c-3 63 -6 74 -22 78 -26 7 -26 33 0 33 15 0 20 7 20 25 0 18 4
23 15 19 8 -4 15 -15 15 -25z m-650 1 c0 -13 7 -20 20 -20 11 0 20 -7 20 -15
0 -8 -9 -15 -20 -15 -18 0 -20 -7 -20 -65 0 -58 2 -65 20 -65 11 0 20 -7 20
-16 0 -11 -8 -14 -32 -12 l-33 3 -3 74 c-3 63 -6 74 -22 78 -26 7 -26 33 0 33
13 0 20 7 20 20 0 11 7 20 15 20 8 0 15 -9 15 -20z m-295 -45 c14 -13 25 -36
25 -50 0 -24 -2 -25 -65 -25 -69 0 -82 -12 -49 -44 20 -20 48 -20 68 0 9 8 24
14 34 12 30 -6 -31 -58 -68 -58 -46 0 -90 47 -90 95 0 79 92 124 145 70z m189
4 c27 -22 35 -49 13 -49 -7 0 -20 9 -30 20 -35 41 -87 14 -87 -45 0 -59 52
-86 87 -45 20 23 43 26 43 6 0 -22 -49 -56 -82 -56 -19 0 -40 10 -59 29 -81
81 25 211 115 140z m317 -8 c21 -22 29 -39 29 -66 0 -48 -44 -95 -90 -95 -46
0 -90 47 -90 95 0 48 44 95 90 95 22 0 41 -9 61 -29z m99 19 c0 -7 6 -7 19 0
29 15 41 12 41 -10 0 -13 -7 -20 -18 -20 -31 0 -42 -22 -42 -87 0 -56 -2 -63
-20 -63 -19 0 -20 7 -20 95 0 88 1 95 20 95 11 0 20 -5 20 -10z m551 -19 c21
-22 29 -39 29 -66 0 -48 -44 -95 -90 -95 -46 0 -90 47 -90 95 0 48 44 95 90
95 22 0 41 -9 61 -29z m193 8 c27 -22 35 -49 13 -49 -7 0 -20 9 -30 20 -34 40
-87 14 -87 -42 0 -59 53 -88 87 -48 20 23 43 26 43 6 0 -22 -49 -56 -82 -56
-19 0 -40 10 -59 29 -81 81 25 211 115 140z m6676 13 c0 -23 -68 -206 -78
-210 -8 -2 -8 9 2 40 37 118 60 178 67 178 5 0 9 -4 9 -8z m-1856 -70 c11 -34
23 -62 26 -62 4 0 17 29 29 65 13 37 29 65 37 65 11 0 10 -9 -5 -47 -10 -27
-24 -65 -30 -85 -20 -62 -42 -50 -74 40 -31 87 -32 95 -15 90 7 -3 21 -32 32
-66z m760 52 c9 -8 16 -20 16 -25 0 -14 -20 -11 -36 6 -18 17 -24 18 -43 6
-23 -15 -6 -36 38 -50 36 -10 41 -15 41 -41 0 -32 -22 -50 -61 -50 -25 0 -59
26 -59 47 0 19 13 16 33 -7 20 -24 40 -26 57 -5 16 19 7 29 -42 44 -22 7 -40
21 -43 32 -15 46 63 79 99 43z m406 -31 l0 -47 30 29 c35 34 54 26 21 -9 l-23
-25 27 -35 c35 -46 11 -49 -27 -4 l-27 33 -1 -32 c0 -23 -5 -33 -15 -33 -12 0
-15 16 -15 85 0 69 3 85 15 85 11 0 15 -12 15 -47z m810 -7 c0 -34 5 -57 13
-60 10 -5 10 -7 0 -12 -7 -3 -13 -14 -13 -25 0 -10 -7 -19 -15 -19 -8 0 -15 9
-15 20 0 17 -7 20 -40 20 -22 0 -40 3 -40 6 0 14 86 123 98 124 8 0 12 -17 12
-54z m146 37 c20 -20 1 -32 -21 -13 -18 15 -40 7 -55 -19 -10 -20 -9 -20 15
-9 39 18 75 -3 75 -43 0 -62 -59 -90 -100 -49 -32 32 -23 117 14 142 19 13 54
9 72 -9z m94 -68 c0 -69 -3 -85 -15 -85 -12 0 -15 15 -15 71 0 60 -2 70 -14
60 -9 -8 -16 -8 -20 -2 -4 5 4 17 16 25 43 30 48 22 48 -69z m130 75 c0 -5
-18 -10 -40 -10 -32 0 -40 -4 -40 -18 0 -15 6 -18 29 -14 21 3 33 -2 45 -19
21 -31 20 -55 -4 -79 -26 -26 -62 -26 -85 0 -23 26 -11 39 14 16 28 -26 61
-13 61 24 0 34 -28 48 -59 28 -27 -17 -31 -10 -24 40 l6 42 48 0 c27 0 49 -4
49 -10z m140 0 c0 -5 -18 -10 -40 -10 -32 0 -40 -4 -40 -18 0 -15 6 -18 29
-14 21 3 33 -2 45 -19 21 -31 20 -55 -4 -79 -26 -26 -62 -26 -85 0 -23 26 -11
39 14 16 28 -26 61 -13 61 24 0 34 -28 48 -59 28 -27 -17 -31 -10 -24 40 l6
42 48 0 c27 0 49 -4 49 -10z m136 -7 c20 -20 1 -32 -21 -13 -19 15 -40 7 -55
-20 -11 -20 -10 -21 9 -11 42 23 81 1 81 -46 0 -57 -61 -82 -100 -43 -32 32
-23 117 14 142 19 13 54 9 72 -9z m144 7 c0 -5 -18 -10 -40 -10 -32 0 -40 -4
-40 -18 0 -15 6 -18 29 -14 21 3 33 -2 45 -19 21 -31 20 -55 -4 -79 -26 -26
-62 -26 -85 0 -23 26 -11 39 14 16 28 -26 61 -13 61 24 0 34 -28 48 -59 28
-27 -17 -31 -10 -24 40 l6 42 48 0 c27 0 49 -4 49 -10z m130 -10 c45 -45 15
-150 -42 -150 -22 0 -58 26 -58 42 0 14 28 9 34 -7 11 -30 49 -14 61 25 6 20
5 23 -6 13 -31 -30 -89 -4 -89 39 0 52 63 75 100 38z m-2490 -5 c0 -8 7 -15
15 -15 8 0 15 -4 15 -10 0 -5 -7 -10 -15 -10 -11 0 -15 -12 -15 -45 0 -33 4
-45 15 -45 8 0 15 -4 15 -10 0 -16 -47 -11 -54 6 -3 9 -6 33 -6 54 0 21 -6 41
-12 44 -10 5 -10 7 0 12 6 3 12 12 12 20 0 8 7 14 15 14 8 0 15 -7 15 -15z
m430 0 c0 -8 7 -15 15 -15 8 0 15 -4 15 -10 0 -5 -7 -10 -15 -10 -11 0 -15
-12 -15 -45 0 -33 4 -45 15 -45 8 0 15 -4 15 -10 0 -16 -47 -11 -54 6 -3 9 -6
33 -6 54 0 21 -6 41 -12 44 -10 5 -10 7 0 12 6 3 12 12 12 20 0 8 7 14 15 14
8 0 15 -7 15 -15z m-638 -32 c10 -9 18 -24 18 -35 0 -15 -8 -18 -45 -18 -47 0
-56 -9 -30 -30 13 -11 20 -11 40 0 31 16 42 8 20 -14 -36 -36 -95 -6 -95 47 0
57 52 86 92 50z m132 1 c31 -31 16 -46 -16 -17 -25 23 -53 6 -53 -32 0 -38 28
-55 53 -32 32 29 47 14 16 -17 -35 -36 -94 -6 -94 47 0 57 58 88 94 51z m209
4 c28 -22 32 -73 8 -97 -41 -41 -101 -15 -101 42 0 55 52 85 93 55z m107 1 c0
-4 -9 -13 -20 -19 -15 -8 -20 -21 -20 -55 0 -33 -4 -45 -15 -45 -12 0 -15 14
-15 64 l0 64 35 0 c19 0 35 -4 35 -9z m330 -9 c56 -56 -23 -146 -82 -93 -10 9
-18 30 -18 46 0 60 59 88 100 47z m124 4 c30 -30 16 -46 -15 -18 -23 21 -47
12 -55 -21 -11 -44 29 -72 56 -40 14 17 30 20 30 6 0 -17 -31 -41 -52 -41 -32
0 -58 29 -58 63 0 57 58 88 94 51z m310 0 c30 -30 16 -46 -15 -18 -23 21 -47
12 -55 -21 -11 -44 29 -72 56 -40 14 17 30 20 30 6 0 -17 -31 -41 -52 -41 -32
0 -58 29 -58 63 0 57 58 88 94 51z m129 4 c28 -22 32 -73 8 -97 -41 -41 -101
-15 -101 42 0 55 52 85 93 55z m205 -1 c14 -10 17 -117 2 -117 -5 0 -10 20
-10 44 0 54 -24 81 -46 51 -8 -10 -14 -36 -14 -57 0 -58 -19 -45 -22 15 -3 44
-6 52 -23 52 -17 0 -20 -8 -23 -52 -2 -38 -7 -53 -18 -53 -11 0 -14 15 -14 64
l0 64 78 -2 c42 -1 83 -5 90 -9z m-448 -102 c0 -8 -7 -15 -15 -15 -8 0 -15 7
-15 15 0 8 7 15 15 15 8 0 15 -7 15 -15z"/>
<path d="M532 428 c-22 -22 -13 -28 38 -28 48 0 50 1 40 20 -12 23 -59 27 -78
8z"/>
<path d="M1037 422 c-34 -38 -10 -112 36 -112 26 0 47 29 47 65 0 58 -49 85
-83 47z"/>
<path d="M1687 422 c-21 -23 -22 -76 -1 -96 35 -36 84 -7 84 49 0 58 -49 85
-83 47z"/>
<path d="M8716 385 c-21 -31 -20 -35 4 -35 16 0 20 7 20 30 0 36 -3 37 -24 5z"/>
<path d="M8850 375 c-26 -31 13 -82 44 -56 19 16 21 42 4 59 -16 16 -33 15
-48 -3z"/>
<path d="M9350 375 c-26 -31 13 -82 44 -56 19 16 21 42 4 59 -16 16 -33 15
-48 -3z"/>
<path d="M9619 424 c-17 -21 0 -49 32 -49 18 0 25 6 27 24 6 38 -34 55 -59 25z"/>
<path d="M6930 385 c-11 -13 -7 -15 25 -15 32 0 36 2 25 15 -7 8 -18 15 -25
15 -7 0 -18 -7 -25 -15z"/>
<path d="M7270 385 c-15 -18 -5 -64 15 -72 35 -13 61 47 33 75 -16 16 -33 15
-48 -3z"/>
<path d="M7700 386 c-15 -19 -9 -56 12 -69 34 -22 66 41 36 71 -16 16 -33 15
-48 -2z"/>
<path d="M8268 376 c-12 -28 -5 -54 17 -62 35 -14 61 46 33 74 -19 19 -37 14
-50 -12z"/>
</g>
</svg>
