<?xml version="1.0" standalone="no"?>
<!DOCTYPE svg PUBLIC "-//W3C//DTD SVG 20010904//EN"
 "http://www.w3.org/TR/2001/REC-SVG-20010904/DTD/svg10.dtd">
<svg version="1.0" xmlns="http://www.w3.org/2000/svg"
 width="225.000000pt" height="225.000000pt" viewBox="0 0 225.000000 225.000000"
 preserveAspectRatio="xMidYMid meet">

<g transform="translate(0.000000,225.000000) scale(0.100000,-0.100000)"
fill="#000000" stroke="none">
<path d="M1380 1435 c-68 -19 -154 -77 -191 -130 -16 -22 -36 -71 -45 -108
-31 -125 10 -243 111 -319 67 -51 123 -69 230 -75 104 -6 176 6 253 43 l53 26
-31 51 c-17 29 -34 58 -39 66 -7 11 -19 8 -67 -15 -150 -74 -316 -9 -331 131
-19 162 166 252 338 165 22 -12 42 -20 44 -18 1 2 19 29 39 61 44 69 41 76
-42 108 -76 28 -243 36 -322 14z"/>
<path d="M0 1250 l0 -190 145 0 145 0 0 190 0 190 -145 0 -145 0 0 -190z"/>
<path d="M400 1212 c5 -219 6 -229 30 -277 51 -98 157 -142 327 -133 76 4 103
10 150 34 120 61 143 125 143 412 l0 192 -95 0 -95 0 -1 -192 c0 -122 -5 -206
-12 -228 -33 -96 -188 -109 -241 -20 -13 24 -16 61 -16 234 l0 206 -97 0 -98
0 5 -228z"/>
<path d="M1865 1125 l0 -315 98 0 97 0 0 315 0 315 -97 0 -98 0 0 -315z"/>
</g>
</svg>
